<svg xmlns="http://www.w3.org/2000/svg" fill="none" viewBox="0 0 183 22" height="22" width="183">
<path fill="black" d="M40.57 11.73C40 11.22 39.36 10.78 38.66 10.4L38.67 10.39C37.97 10 37.3 9.66 36.65 9.35C35.94 9.02 35.33 8.7 34.81 8.39C34.29 8.08 33.86 7.76 33.52 7.42C33.18 7.08 32.92 6.7 32.75 6.28C32.58 5.86 32.49 5.35 32.49 4.75C32.49 3.54 32.91 2.64 33.75 2.05C34.59 1.46 35.65 1.17 36.92 1.17C37.69 1.17 38.45 1.27 39.21 1.48C39.97 1.68 40.71 1.96 41.44 2.31L41.74 1.14C41.07 0.79 40.32 0.52 39.48 0.31C38.64 0.1 37.76 0 36.85 0C36.11 0 35.39 0.09 34.7 0.29C34.01 0.49 33.41 0.78 32.88 1.17C32.35 1.56 31.93 2.06 31.62 2.67C31.31 3.28 31.15 4 31.15 4.82C31.15 5.59 31.28 6.24 31.53 6.8C31.78 7.36 32.13 7.86 32.59 8.3C33.05 8.74 33.59 9.14 34.23 9.5C34.87 9.86 35.56 10.23 36.31 10.6C36.94 10.91 37.54 11.22 38.13 11.53C38.71 11.84 39.23 12.2 39.69 12.6C40.15 13 40.52 13.46 40.8 13.97C41.09 14.48 41.23 15.1 41.23 15.82C41.23 17.16 40.76 18.22 39.83 18.99C38.9 19.76 37.65 20.15 36.07 20.15C35.14 20.15 34.27 20.06 33.46 19.86C32.65 19.66 31.83 19.38 31 19.01L30.67 20.15C31.39 20.5 32.26 20.78 33.26 21C34.26 21.21 35.18 21.32 36.13 21.32C37.08 21.32 37.95 21.19 38.74 20.92C39.53 20.66 40.2 20.27 40.77 19.78C41.34 19.29 41.78 18.7 42.09 18.02C42.4 17.34 42.56 16.6 42.56 15.8C42.56 14.91 42.37 14.14 42 13.48C41.62 12.82 41.15 12.24 40.57 11.73ZM10.98 20.95L18.96 0.39H19.93L27.92 20.95H26.58L24.46 15.39H14.41L12.32 20.95H10.98ZM19.44 2.12L14.86 14.22H24.02L19.44 2.12ZM67.96 11.01C67.96 4.95002 72.89 0.0200195 78.94 0.0200195C84.99 0.0200195 89.93 4.95002 89.93 11.01C89.93 17.07 85 22 78.94 22C72.88 22 67.95 17.07 67.95 11.01H67.96ZM69.43 11.01C69.43 16.27 73.7 20.53 78.95 20.53C84.2 20.53 88.47 16.25 88.47 11.01C88.47 5.77002 84.2 1.49002 78.95 1.49002C73.7 1.49002 69.43 5.77002 69.43 11.01ZM106 19.5L92.63 0.619995H91.3V21.42H92.63V2.74L106 21.39V21.3903H112.33C112.6 21.3903 112.78 21.1804 112.78 20.9705V11.6347L118.07 21.0005C118.22 21.2403 118.5 21.3903 118.71 21.3903H123.97C124.25 21.3903 124.43 21.1804 124.43 20.9705V12.5743C125.2 17.9019 129.84 22 135.42 22C141.55 22 146.53 17.0722 146.53 11.005C146.53 10.915 146.527 10.8276 146.525 10.7401C146.522 10.6527 146.52 10.5652 146.52 10.4752L150.19 20.9705C150.25 21.1804 150.5 21.3903 150.74 21.3903H157.43C157.68 21.3903 157.92 21.1804 157.98 20.9705L164.95 1.02953C165.05 0.819627 164.89 0.609723 164.65 0.609723H157.87C157.59 0.609723 157.35 0.819627 157.29 1.02953L154.1 13.4039L150.91 1.02953C150.85 0.819627 150.6 0.609723 150.33 0.609723H143.55C143.3 0.609723 143.15 0.819627 143.24 1.02953L144.51 4.64789C142.49 1.83916 139.19 0 135.45 0C129.87 0 125.23 4.10813 124.46 9.42572V1.05952C124.46 0.819627 124.27 0.609723 124 0.609723H118.61C118.39 0.609723 118.18 0.819627 118.18 1.05952V10.3553L112.92 0.98955C112.8 0.749659 112.49 0.599727 112.22 0.599727H107.86H106V19.5ZM65.21 21.32H63.84V0.709961H65.21V21.32ZM58.38 10.24H45.97V0.709961H44.62V21.32H45.97V11.48H58.38V21.32H59.73V0.709961H58.38V10.24ZM1.31 1.87996H10.3V0.709961H0V21.32H1.31V11.76H9.94V10.58H1.31V1.87996ZM135.45 15.8228C132.76 15.8228 130.57 13.6538 130.57 10.995C130.57 8.33621 132.76 6.1672 135.45 6.1672C138.14 6.1672 140.33 8.33621 140.33 10.995C140.33 13.6538 138.14 15.8228 135.45 15.8228ZM171.53 7.80645L169.89 13.5239H173.17L171.53 7.80645ZM182.25 21.0005L175.37 0.999546C175.28 0.819627 174.94 0.609723 174.64 0.609723H168.43C168.13 0.609723 167.79 0.819627 167.7 0.999546L160.85 21.0005C160.76 21.1804 160.88 21.3903 161.12 21.3903H167.14C167.42 21.3903 167.66 21.2403 167.78 21.0005L168.69 17.8419H174.41L175.32 21.0005C175.44 21.2403 175.68 21.3903 175.96 21.3903H181.98C182.22 21.3903 182.34 21.1804 182.25 21.0005Z" clip-rule="evenodd" fill-rule="evenodd"></path>
</svg>
